<svg width="42" height="42" viewBox="0 0 42 42" fill="none" xmlns="http://www.w3.org/2000/svg">
<path d="M21 3.5C16.415 3.5 12.6875 7.2275 12.6875 11.8125C12.6875 16.31 16.205 19.95 20.79 20.1075C20.93 20.09 21.07 20.09 21.175 20.1075C21.21 20.1075 21.2275 20.1075 21.2625 20.1075C21.28 20.1075 21.28 20.1075 21.2975 20.1075C25.7775 19.95 29.295 16.31 29.3125 11.8125C29.3125 7.2275 25.585 3.5 21 3.5Z" fill="#292D32"/>
<path d="M29.89 24.7625C25.0075 21.5075 17.045 21.5075 12.1275 24.7625C9.90499 26.25 8.67999 28.2625 8.67999 30.415C8.67999 32.5675 9.90499 34.5625 12.11 36.0325C14.56 37.6775 17.78 38.5 21 38.5C24.22 38.5 27.44 37.6775 29.89 36.0325C32.095 34.545 33.32 32.55 33.32 30.38C33.3025 28.2275 32.095 26.2325 29.89 24.7625Z" fill="#292D32"/>
</svg>
