<svg width="38" height="38" viewBox="0 0 38 38" fill="none" xmlns="http://www.w3.org/2000/svg">
<path d="M34.0892 25.2223C33.8359 24.7948 33.1234 24.1298 31.35 24.4465C30.3684 24.6207 29.3709 24.6998 28.3734 24.6523C24.6842 24.494 21.3434 22.7998 19.0159 20.1873C16.9575 17.8915 15.6909 14.899 15.675 11.669C15.675 9.86401 16.0234 8.12234 16.7359 6.47567C17.4325 4.87651 16.9417 4.03734 16.5934 3.68901C16.2292 3.32484 15.3742 2.81817 13.6959 3.51484C7.22003 6.23817 3.21419 12.7298 3.68919 19.6807C4.16419 26.2198 8.75586 31.809 14.8359 33.9148C16.2925 34.4215 17.8284 34.7223 19.4117 34.7857C19.665 34.8015 19.9184 34.8173 20.1717 34.8173C25.4759 34.8173 30.4475 32.3157 33.5825 28.0565C34.6434 26.584 34.3584 25.6498 34.0892 25.2223Z" fill="#292D32"/>
</svg>
