<svg width="154" height="39" viewBox="0 0 154 39" fill="none" xmlns="http://www.w3.org/2000/svg">
<path d="M19.7968 38.1114C15.668 38.1114 12.1039 37.3174 9.10439 35.7294C6.14017 34.1062 3.88171 31.8654 2.32903 29.007C0.776341 26.1134 0 22.7963 0 19.0557C0 15.3151 0.776341 12.0157 2.32903 9.15732C3.88171 6.26368 6.14017 4.02287 9.10439 2.43489C12.1039 0.81163 15.668 0 19.7968 0C23.9255 0 27.472 0.81163 30.4362 2.43489C33.4357 4.02287 35.7118 6.26368 37.2645 9.15732C38.8172 12.0157 39.5935 15.3151 39.5935 19.0557C39.5935 22.7963 38.8172 26.1134 37.2645 29.007C35.7118 31.8654 33.4357 34.1062 30.4362 35.7294C27.472 37.3174 23.9255 38.1114 19.7968 38.1114ZM19.7968 32.5535C23.8196 32.5535 26.9426 31.3537 29.1658 28.9541C31.389 26.5192 32.5006 23.2197 32.5006 19.0557C32.5006 14.8564 31.336 11.5569 29.007 9.15732C26.7133 6.75771 23.4667 5.55791 19.2674 5.55791C15.421 5.55791 12.4215 6.793 10.2689 9.26318C8.15161 11.6981 7.09296 14.9623 7.09296 19.0557C7.09296 23.2197 8.20453 26.5192 10.4277 28.9541C12.6509 31.3537 15.7739 32.5535 19.7968 32.5535ZM73.6 0C74.6587 0 75.5056 0.282306 76.1408 0.846919C76.776 1.41153 77.0936 2.18787 77.0936 3.17595V8.73386C77.0936 13.4272 75.9114 17.256 73.5471 20.2202C71.1828 23.1491 67.8833 24.9312 63.6487 25.5664V34.9355C63.6487 35.8882 63.3135 36.6646 62.643 37.2645C62.0078 37.8291 61.1609 38.1114 60.1022 38.1114C59.0436 38.1114 58.1967 37.8291 57.5615 37.2645C56.9263 36.6999 56.6087 35.9235 56.6087 34.9355V25.5664C52.3388 24.9312 49.0217 23.1491 46.6574 20.2202C44.2931 17.2913 43.1109 13.4625 43.1109 8.73386V3.17595C43.1109 2.18787 43.4285 1.41153 44.0637 0.846919C44.6989 0.282306 45.5458 0 46.6045 0C47.6631 0 48.51 0.299955 49.1452 0.899857C49.8157 1.46447 50.1509 2.22316 50.1509 3.17595V8.89266C50.1509 12.5626 50.9979 15.3857 52.6917 17.3619C54.4208 19.3027 56.891 20.2731 60.1022 20.2731C63.3135 20.2731 65.766 19.3027 67.4599 17.3619C69.189 15.3857 70.0536 12.5626 70.0536 8.89266V3.17595C70.0536 2.22316 70.3712 1.46447 71.0063 0.899857C71.6768 0.299955 72.5414 0 73.6 0ZM85.7416 38.1114C84.683 38.1114 83.8361 37.8291 83.2009 37.2645C82.5657 36.6999 82.2481 35.9235 82.2481 34.9355V14.9799C82.2481 10.2866 83.7126 6.61656 86.6415 3.96994C89.5704 1.32331 93.6286 0 98.816 0C104.003 0 108.062 1.32331 110.99 3.96994C113.919 6.61656 115.384 10.2866 115.384 14.9799V34.9355C115.384 35.9235 115.066 36.6999 114.431 37.2645C113.796 37.8291 112.949 38.1114 111.89 38.1114C110.832 38.1114 109.967 37.8291 109.297 37.2645C108.661 36.6646 108.344 35.8882 108.344 34.9355V14.8211C108.344 11.8216 107.532 9.52785 105.909 7.93988C104.286 6.3519 101.921 5.55791 98.816 5.55791C95.7106 5.55791 93.3463 6.3519 91.723 7.93988C90.0998 9.52785 89.2881 11.8216 89.2881 14.8211V34.9355C89.2881 35.8882 88.9529 36.6646 88.2824 37.2645C87.6472 37.8291 86.8003 38.1114 85.7416 38.1114ZM124.252 38.0585C123.193 38.0585 122.346 37.7762 121.711 37.2115C121.076 36.6469 120.758 35.8706 120.758 34.8825V16.3561C120.758 11.2393 122.223 7.2341 125.152 4.34046C128.081 1.44682 132.157 0 137.379 0C140.802 0 143.766 0.652838 146.272 1.95851C148.777 3.26417 150.683 5.1521 151.989 7.62228C153.33 10.0925 154 13.0038 154 16.3561V34.8825C154 35.8706 153.682 36.6469 153.047 37.2115C152.412 37.7762 151.565 38.0585 150.506 38.0585C149.448 38.0585 148.583 37.7762 147.913 37.2115C147.278 36.6116 146.96 35.8353 146.96 34.8825V26.2545H127.798V34.8825C127.798 35.8353 127.463 36.6116 126.793 37.2115C126.157 37.7762 125.311 38.0585 124.252 38.0585ZM146.96 20.8025V16.1973C146.96 12.6685 146.148 10.0219 144.525 8.25747C142.937 6.45777 140.555 5.55791 137.379 5.55791C130.992 5.55791 127.798 9.10439 127.798 16.1973V20.8025H146.96Z" fill="#0CA7A7"/>
</svg>
