<svg width="31" height="33" viewBox="0 0 31 33" fill="none" xmlns="http://www.w3.org/2000/svg">
<path d="M18.9485 4.3706C18.9485 2.65827 16.9368 1.73775 15.641 2.85712L8.14256 9.33468C7.77927 9.64851 7.31522 9.82119 6.83515 9.8212L2.49998 9.82123C1.11928 9.82124 0 10.9405 0 12.3212V20.4162C0 21.7969 1.11929 22.9162 2.5 22.9162H6.83521C7.31528 22.9162 7.77934 23.0889 8.14264 23.4027L15.641 29.8802C16.9368 30.9996 18.9485 30.079 18.9485 28.3667V16.3687V4.3706Z" fill="#292D32"/>
<path d="M23.6863 21.1065C24.6777 19.787 25.2652 18.1469 25.2652 16.3697C25.2652 14.5924 24.6777 12.9523 23.6863 11.6328" stroke="#292D32" stroke-linecap="round"/>
<path d="M26.8445 25.844C28.8275 23.2049 30.0026 19.9245 30.0026 16.3698C30.0026 12.815 28.8275 9.53459 26.8445 6.89551" stroke="#292D32" stroke-linecap="round"/>
</svg>
